<?xml version="1.0" encoding="UTF-8"?>
<svg version="1.1" xmlns="http://www.w3.org/2000/svg" width="799" height="285">
<path d="M0 0 C263.67 0 527.34 0 799 0 C799 94.05 799 188.1 799 285 C535.33 285 271.66 285 0 285 C0 190.95 0 96.9 0 0 Z " fill="#F4F4F4" transform="translate(0,0)"/>
<path d="M0 0 C-1.3303125 1.4540625 -1.3303125 1.4540625 -2.6875 2.9375 C-6.14494929 6.94518469 -8.59426112 11.30561573 -11 16 C-10.42765625 16.26167969 -9.8553125 16.52335937 -9.265625 16.79296875 C1.58518542 22.57383154 8.31546825 33.72001839 12.5 44.9375 C14.15394109 50.99210578 14.41238967 56.94682827 14.5 63.1875 C14.51869141 64.10200928 14.53738281 65.01651855 14.55664062 65.95874023 C14.45346224 76.96807249 9.83274947 87.13182898 2.0703125 94.94140625 C-9.95348763 105.13741259 -23.76287034 106.69590346 -38.84765625 105.76171875 C-47.05162142 104.96152904 -54.10690364 103.23682948 -61.68481445 99.94482422 C-65.57442504 98.297306 -67.97718598 97.54493961 -72 99 C-73.86355308 99.94248662 -75.69688215 100.94649294 -77.5 102 C-86.18089073 107.0719811 -96.83237606 107.24746257 -106.6484375 105.5390625 C-111.53014335 103.94923493 -114.41473044 101.36264238 -117 97 C-117.84550775 93.13284161 -117.91782999 89.70196033 -116.0078125 86.16015625 C-112.78433283 82.06573642 -109.91866667 80.24513677 -104.8203125 79.59375 C-93.23002553 79.29970466 -84.83254751 82.31360878 -74.875 88.5 C-72.22741654 90.3019158 -72.22741654 90.3019158 -70.1015625 89.453125 C-67.26660869 87.49289671 -65.4538327 85.03665934 -63.5 82.25 C-63.07130615 81.64365723 -62.6426123 81.03731445 -62.20092773 80.41259766 C-55.4507333 70.57850273 -50.1345786 59.82909768 -44.57324219 49.29833984 C-39.04031694 38.85479805 -33.27094906 29.12251567 -26.01953125 19.7734375 C-23.80378484 17.30233802 -23.80378484 17.30233802 -24 15 C-26.5607445 14.01602415 -29.12341492 13.03770033 -31.6875 12.0625 C-32.40873047 11.78470703 -33.12996094 11.50691406 -33.87304688 11.22070312 C-49.10955411 5.44613646 -65.62852144 7.15264121 -80.37109375 13.70703125 C-83.52107445 15.25627882 -86.19986916 16.88282791 -89 19 C-89.825 19.556875 -90.65 20.11375 -91.5 20.6875 C-95.94766129 24.8015867 -99.50842965 28.9118282 -100.484375 35.04296875 C-100.62196703 40.58104791 -100.48642699 45.46764492 -97 50 C-92.32754805 53.33746568 -87.57067637 53.90010929 -82 53 C-76.43297334 50.16396755 -72.95703103 46.53613223 -70.75 40.6875 C-70.5025 39.800625 -70.255 38.91375 -70 38 C-69.01 38.33 -68.02 38.66 -67 39 C-67.90601825 45.20690116 -68.92927605 48.89512823 -74 53 C-74.66 53.556875 -75.32 54.11375 -76 54.6875 C-81.72148944 58.44222745 -87.33736861 58.74756032 -94 58 C-99.92549917 56.24133583 -103.56881323 53.0458629 -107 48 C-109.58478215 42.4611811 -110.01696986 36.58070824 -108.34765625 30.703125 C-104.01058745 19.90698808 -95.78000823 12.98273689 -85.375 8.375 C-64.44716506 0.22497092 -41.20586737 0.28919186 -20.5 9.25 C-18.7675 10.11625 -18.7675 10.11625 -17 11 C-16.62875 10.10861328 -16.62875 10.10861328 -16.25 9.19921875 C-14.80937117 6.66461241 -13.3603228 5.50030435 -11 3.8125 C-9.948125 3.04873047 -9.948125 3.04873047 -8.875 2.26953125 C-5.70605092 0.12388864 -3.80329209 -0.10008663 0 0 Z " fill="#212121" transform="translate(559,62)"/>
<path d="M0 0 C3.58162255 2.75164321 5.67921275 5.16081979 6.46875 9.6875 C6.67983032 16.16062992 5.8326923 20.76782545 1.4765625 25.73828125 C-11.24348033 38.27047535 -31.18794684 39.39338607 -48.05004883 39.29418945 C-56.47313487 39.14084764 -64.68790268 38.36905132 -73 37 C-89.72218343 61.54024104 -89.72218343 61.54024104 -94 90 C-92.62747293 93.11937969 -92.020457 94.4897715 -89 96 C-78.63271375 97.25991326 -71.70927705 93.91896521 -63.5625 87.8125 C-62.02738381 86.55895715 -60.50742777 85.28670623 -59 84 C-58.11183594 83.24589844 -57.22367188 82.49179688 -56.30859375 81.71484375 C-43.28559696 70.28576033 -33.47830247 56.0106562 -24.05859375 41.57421875 C-23 40 -23 40 -22 39 C-20.00041636 38.95919217 -17.99954746 38.95745644 -16 39 C-16 46.53013259 -18.15533146 49.9873964 -22.73046875 55.83203125 C-25.34748431 59.48504264 -27.3795379 63.23358209 -29.375 67.25 C-29.70830322 67.91136963 -30.04160645 68.57273926 -30.38500977 69.25415039 C-33.72141076 76.09227341 -35.27113251 82.19601514 -35.1875 89.875 C-35.18105469 91.19242187 -35.17460937 92.50984375 -35.16796875 93.8671875 C-35.35711651 96.86562842 -35.35711651 96.86562842 -34 98 C-30.03958319 98.38827616 -27.58640506 98.29320253 -24 96.5 C-15.46016034 89.38346695 -10.90552239 80.78556156 -6 71 C-5.34 71 -4.68 71 -4 71 C-5.35921858 82.34947512 -12.67872092 92.4732875 -21 100 C-25.92415961 103.7027372 -30.6778917 104.65340342 -36.796875 104.390625 C-39 104 -39 104 -41.5 102.25 C-44.44610491 97.83084263 -45.25670948 95.02333919 -45.1875 89.625 C-45.18105469 88.52414063 -45.17460937 87.42328125 -45.16796875 86.2890625 C-45.00612356 83.11990794 -44.5882772 80.11551603 -44 77 C-44.49886719 77.53367187 -44.99773437 78.06734375 -45.51171875 78.6171875 C-56.25854494 89.76919027 -69.57462034 101.83009001 -85.875 102.3125 C-90.68084487 102.27003303 -93.28116746 101.17461315 -97 98 C-97.5775 97.525625 -98.155 97.05125 -98.75 96.5625 C-103.85373677 90.18282903 -102.51339347 80.69549791 -102 73 C-100.1299012 57.7429563 -90.94031316 44.0859789 -82 32 C-83.12535156 31.57460937 -83.12535156 31.57460937 -84.2734375 31.140625 C-89.16472952 29.09441115 -92.91125666 26.58043388 -95.9375 22.1875 C-97.29520503 18.11438491 -97.35132053 15.28611042 -97 11 C-96.34 10.01 -95.68 9.02 -95 8 C-94.01 8 -93.02 8 -92 8 C-92.06960937 8.64066406 -92.13921875 9.28132813 -92.2109375 9.94140625 C-92.51575719 14.81126374 -92.53752295 18.09386651 -89.3125 21.9375 C-86.7820562 24.45603583 -84.32022968 26.60200856 -81 28 C-77.17962916 27.6156095 -75.59085664 25.82379545 -73.0625 23.0625 C-57.07746454 6.63416013 -22.76427207 -16.23948071 0 0 Z " fill="#1F1F1F" transform="translate(233,67)"/>
<path d="M0 0 C10.33265066 4.76200422 16.27014888 15.82049155 20.171875 26.08203125 C23.48714758 37.76367566 23.46945198 50.29148017 17.86328125 61.21484375 C12.6481344 70.04933542 5.2880812 76.27701012 -4.46240234 79.38476562 C-8.86215023 80.45147379 -13.17897952 80.48614456 -17.6875 80.4375 C-18.64849609 80.43210205 -19.60949219 80.4267041 -20.59960938 80.42114258 C-30.99872391 80.20057115 -39.7364204 77.81099595 -49 73 C-47.54937961 69.67473173 -45.71465685 67.52092008 -43.1875 64.9375 C-30.68954177 51.2435649 -21.43610471 34.510408 -11.73632812 18.80712891 C-9.19312127 14.69551581 -6.62823688 10.59757613 -4.0625 6.5 C-3.26159422 5.21882784 -2.46079781 3.93758729 -1.66015625 2.65625 C-1.11230469 1.7796875 -0.56445312 0.903125 0 0 Z " fill="#F2F2F2" transform="translate(543,83)"/>
<path d="M0 0 C1.27484253 0.03311279 1.27484253 0.03311279 2.57543945 0.06689453 C3.68278442 0.09565674 3.68278442 0.09565674 4.8125 0.125 C4.44680908 0.64126953 4.08111816 1.15753906 3.7043457 1.68945312 C-0.47004099 7.74334726 -3.82643878 13.99926587 -7 20.625 C-7.48919922 21.60597656 -7.97839844 22.58695313 -8.48242188 23.59765625 C-11.36121843 29.57822668 -12.87877127 34.48390198 -13.1875 41.125 C-6.80055603 39.87876703 -3.98632779 36.04332416 -0.1875 31.125 C1.84009423 28.05926445 3.6536677 24.8999538 5.4375 21.6875 C5.88867188 20.89279297 6.33984375 20.09808594 6.8046875 19.27929688 C8.6155773 16.08161934 10.41496706 12.883994 12.12011719 9.62841797 C12.54196289 8.83193848 12.96380859 8.03545898 13.3984375 7.21484375 C13.76759277 6.50062256 14.13674805 5.78640137 14.51708984 5.05053711 C16.02242248 2.81296484 17.5404121 1.56193307 19.8125 0.125 C22.171875 -0.16796875 22.171875 -0.16796875 24.5625 -0.0625 C25.76132812 -0.02189453 25.76132812 -0.02189453 26.984375 0.01953125 C27.88929688 0.07173828 27.88929688 0.07173828 28.8125 0.125 C28.44898438 0.60066406 28.08546875 1.07632813 27.7109375 1.56640625 C19.55742302 12.91860718 15.6845637 26.9930119 11.1328125 40.08203125 C10.87773926 40.81397705 10.62266602 41.54592285 10.35986328 42.30004883 C9.71673696 44.12673632 9.71673696 44.12673632 9.8125 46.125 C21.01131875 40.07472909 26.24190402 31.23232815 31.8125 20.125 C32.4725 20.125 33.1325 20.125 33.8125 20.125 C32.3409577 30.16501645 25.84721166 40.05241935 17.8125 46.125 C9.46691176 51.125 9.46691176 51.125 5.8125 51.125 C5.42771484 52.18654297 5.42771484 52.18654297 5.03515625 53.26953125 C-0.08690545 65.23191815 -10.20538449 78.51786976 -22.26953125 84.0859375 C-27.82999416 86.20884628 -33.27008854 86.91122949 -39.1875 86.125 C-42.21036884 84.73951845 -43.85621425 83.45628575 -46.1875 81.125 C-47.00789521 76.88103247 -46.97855874 72.80890813 -45.125 68.86328125 C-38.48470323 59.39003178 -28.01084002 55.90916348 -17.1875 53.125 C-15.75181446 52.8806627 -14.31274675 52.65544755 -12.87109375 52.44921875 C-5.64843365 51.57487866 -5.64843365 51.57487866 0.07714844 47.54980469 C2.43786005 43.30495704 3.68416094 38.82554615 4.8125 34.125 C5.02003906 33.3103125 5.22757813 32.495625 5.44140625 31.65625 C5.56386719 31.1509375 5.68632812 30.645625 5.8125 30.125 C5.38839844 30.70507812 4.96429688 31.28515625 4.52734375 31.8828125 C-4.73030183 44.21277563 -4.73030183 44.21277563 -10.23046875 45.6640625 C-13.98502962 45.93174226 -16.0830046 45.1946636 -19.1875 43.125 C-21.27602972 39.99220542 -21.8537236 37.99093639 -21.62109375 34.2265625 C-21.00111052 31.22159873 -19.67407949 28.83308829 -18.18359375 26.171875 C-17.14671107 24.04118275 -16.75344405 22.26769482 -16.375 19.9375 C-15.13401268 13.48436592 -11.71757249 7.60486754 -8.1875 2.125 C-4.87379 -0.08414 -3.8428979 -0.09981553 0 0 Z " fill="#252525" transform="translate(248.1875,117.875)"/>
<path d="M0 0 C1.21236328 0.02707031 1.21236328 0.02707031 2.44921875 0.0546875 C3.37154297 0.08949219 3.37154297 0.08949219 4.3125 0.125 C4.8075 1.61 4.8075 1.61 5.3125 3.125 C2.28515625 3.36914062 2.28515625 3.36914062 -0.7421875 3.61328125 C-3.08269216 3.99893036 -3.08269216 3.99893036 -4.6875 7.125 C-5.9016646 12.72883664 -4.6540066 16.58940917 -1.6875 21.375 C1.98136146 27.56511697 2.44477554 33.0621993 1.3125 40.125 C0.24794308 42.89557762 -0.89893323 44.72161341 -2.6875 47.125 C1.22873124 45.07742732 3.20969203 43.27956455 5.375 39.4375 C5.87386719 38.55964844 6.37273437 37.68179688 6.88671875 36.77734375 C8.77689624 33.26109576 10.5805995 29.72202411 12.3125 26.125 C13.3025 26.125 14.2925 26.125 15.3125 26.125 C13.06408837 34.44412303 8.24776787 44.92607043 0.84765625 49.72265625 C-3.929257 51.61758648 -8.15883002 51.60136389 -13.25 51.5625 C-14.18263672 51.58248047 -15.11527344 51.60246094 -16.07617188 51.62304688 C-20.41529081 51.61995413 -22.98347274 51.55046176 -26.7578125 49.26953125 C-28.81927935 46.97854886 -29.7909573 45.05913973 -30.6875 42.125 C-31.16960938 42.69089844 -31.65171875 43.25679687 -32.1484375 43.83984375 C-32.78007813 44.57332031 -33.41171875 45.30679688 -34.0625 46.0625 C-34.68898438 46.79339844 -35.31546875 47.52429688 -35.9609375 48.27734375 C-38.41738526 50.90607631 -39.40485453 51.09882912 -43.0625 51.4375 C-46.6875 51.125 -46.6875 51.125 -49.0625 49.5625 C-51.12957794 46.46188308 -51.25179065 43.78581287 -51.6875 40.125 C-52.38617187 40.83527344 -53.08484375 41.54554688 -53.8046875 42.27734375 C-54.71476563 43.19644531 -55.62484375 44.11554688 -56.5625 45.0625 C-57.46742188 45.97902344 -58.37234375 46.89554688 -59.3046875 47.83984375 C-62.26706663 50.6808139 -63.0111189 51.06351081 -67.125 51.4375 C-70.6875 51.125 -70.6875 51.125 -72.5625 49.3125 C-75.58956963 43.42653127 -75.62553143 37.46070991 -73.8515625 31.15234375 C-69.29488573 19.30192598 -62.05804162 10.81027081 -50.6875 5.125 C-48.58801399 4.95028152 -46.48125592 4.85782148 -44.375 4.8125 C-43.24449219 4.77511719 -42.11398437 4.73773438 -40.94921875 4.69921875 C-37.01213097 5.21316195 -35.38088837 6.23958769 -32.6875 9.125 C-32.6875 10.445 -32.6875 11.765 -32.6875 13.125 C-33.6775 13.125 -34.6675 13.125 -35.6875 13.125 C-36.3475 12.135 -37.0075 11.145 -37.6875 10.125 C-42.5892437 9.3643846 -45.56456153 9.61825749 -49.6875 12.4375 C-57.20600987 18.71523418 -65.84069909 29.73473751 -66.98828125 39.75 C-67.03653092 42.48260007 -67.03653092 42.48260007 -66.6875 46.125 C-62.80429638 45.79215398 -60.68996776 44.69370307 -58.05859375 41.81640625 C-52.48681819 34.94296233 -47.93056183 27.38259614 -43.38671875 19.8125 C-41.6875 17.125 -41.6875 17.125 -39.6875 15.125 C-36.99910615 14.85508094 -34.39608064 15.03762643 -31.6875 15.125 C-31.6875 18.66127097 -32.37912695 19.35332936 -34.4375 22.125 C-39.74813466 29.85869019 -42.07785423 37.82790195 -42.6875 47.125 C-35.79110098 44.85769073 -32.53973529 39.47202166 -29.12890625 33.30859375 C-27.93563086 30.93218412 -26.78475024 28.54704085 -25.6875 26.125 C-25.0275 26.125 -24.3675 26.125 -23.6875 26.125 C-23.1925 27.115 -23.1925 27.115 -22.6875 28.125 C-22.37522461 27.51503174 -22.06294922 26.90506348 -21.74121094 26.27661133 C-20.31243739 23.49388713 -18.87506379 20.71569261 -17.4375 17.9375 C-16.94636719 16.97779297 -16.45523438 16.01808594 -15.94921875 15.02929688 C-8.02777276 -0.23268907 -8.02777276 -0.23268907 0 0 Z " fill="#1E1E1E" transform="translate(655.6875,111.875)"/>
<path d="M0 0 C0.78117187 0.05414063 1.56234375 0.10828125 2.3671875 0.1640625 C2.94726562 0.23367187 3.52734375 0.30328125 4.125 0.375 C4.62 1.86 4.62 1.86 5.125 3.375 C3.84625 3.4575 2.5675 3.54 1.25 3.625 C-0.92134555 3.67867785 -0.92134555 3.67867785 -2.875 4.375 C-5.23429489 7.74542127 -5.09097507 10.71554594 -4.56640625 14.74609375 C-3.72881572 17.93083061 -2.36428987 20.53568963 -0.8125 23.4375 C2.29595632 29.33310585 3.43176488 33.00356035 1.46875 39.5703125 C0.5086792 42.24891004 -0.60247797 44.82995594 -1.875 47.375 C3.36006215 43.57245486 5.82033867 39.89623741 8.5 34.0625 C8.85449219 33.32193359 9.20898438 32.58136719 9.57421875 31.81835938 C10.43752725 30.01007805 11.28312711 28.19335997 12.125 26.375 C13.115 26.375 14.105 26.375 15.125 26.375 C12.64214639 34.95213064 8.38341593 45.63333192 0.34375 50.43994141 C-3.83275579 52.20006654 -8.34195319 51.74419786 -12.8125 51.75 C-13.80185547 51.77449219 -14.79121094 51.79898438 -15.81054688 51.82421875 C-23.08466515 51.8535696 -23.08466515 51.8535696 -26.984375 49.4921875 C-28.75316183 47.51143861 -29.90694384 45.83914295 -30.875 43.375 C-31.6175 44.32375 -32.36 45.2725 -33.125 46.25 C-36.80448635 50.58543935 -36.80448635 50.58543935 -39.875 51.375 C-43.74266891 51.43002781 -46.83356407 51.2820571 -49.8125 48.6875 C-51.08047051 45.92779949 -51.53318089 43.38300814 -51.875 40.375 C-52.41769531 41.00148437 -52.96039063 41.62796875 -53.51953125 42.2734375 C-54.23496094 43.09070313 -54.95039063 43.90796875 -55.6875 44.75 C-56.74904297 45.96816406 -56.74904297 45.96816406 -57.83203125 47.2109375 C-60.59810422 50.14096508 -62.20199073 51.30022119 -66.25 51.75 C-69.875 51.375 -69.875 51.375 -72.8125 49.9375 C-75.40672895 46.71436706 -75.52548183 44.85915477 -75.3125 40.8125 C-74.7072194 37.44022236 -73.43481376 34.63400038 -71.84765625 31.61328125 C-70.74364205 29.3482236 -70.74364205 29.3482236 -70.4921875 26.58984375 C-69.69819466 22.45404561 -67.9666864 19.28112701 -65.9375 15.625 C-65.57720703 14.95339844 -65.21691406 14.28179687 -64.84570312 13.58984375 C-63.37594073 10.88851249 -62.06061878 8.56061878 -59.875 6.375 C-57.2734375 6.1796875 -57.2734375 6.1796875 -54.25 6.25 C-52.74566406 6.27707031 -52.74566406 6.27707031 -51.2109375 6.3046875 C-50.44007813 6.32789062 -49.66921875 6.35109375 -48.875 6.375 C-49.24069092 6.81980713 -49.60638184 7.26461426 -49.9831543 7.72290039 C-54.44017251 13.37158903 -57.60808788 19.32841549 -60.6875 25.8125 C-61.42129883 27.29073242 -61.42129883 27.29073242 -62.16992188 28.79882812 C-65.04162401 34.79246369 -66.56558275 39.72596703 -66.875 46.375 C-63.7539831 46.45112236 -61.63546455 46.05590257 -59.26953125 43.9375 C-52.14775436 35.27633666 -47.16544805 24.70857065 -42.0078125 14.80078125 C-41.23050781 13.32158203 -41.23050781 13.32158203 -40.4375 11.8125 C-40.00566406 10.96558594 -39.57382812 10.11867188 -39.12890625 9.24609375 C-37.875 7.375 -37.875 7.375 -34.875 6.375 C-33.48060336 6.30834624 -32.08330125 6.28961801 -30.6875 6.3125 C-28.8003125 6.3434375 -28.8003125 6.3434375 -26.875 6.375 C-28.51089606 9.86379873 -30.54175274 13.01208469 -32.625 16.25 C-38.42726517 25.54959381 -44.04240966 35.09003997 -42.875 46.375 C-39.362433 46.09795246 -37.44168414 45.93944428 -34.8984375 43.40625 C-31.32195091 37.91439382 -28.2538516 32.49204696 -25.875 26.375 C-24.555 26.375 -23.235 26.375 -21.875 26.375 C-21.42229736 25.51334229 -21.42229736 25.51334229 -20.96044922 24.63427734 C-19.56823266 22.00005288 -18.15931112 19.37511578 -16.75 16.75 C-16.275625 15.84636719 -15.80125 14.94273438 -15.3125 14.01171875 C-7.38165619 -0.67105965 -7.38165619 -0.67105965 0 0 Z " fill="#202020" transform="translate(354.875,111.625)"/>
<path d="M0 0 C4.04391802 3.38368651 4.04391802 3.38368651 4.30078125 5.85546875 C4.48632328 13.09160798 3.68883437 16.74378715 -1.41015625 22.11328125 C-12.97155846 33.12804505 -30.83185165 33.8583862 -45.88671875 33.796875 C-52.67867533 33.53583897 -59.31953867 32.02349541 -65.9375 30.5625 C-55.95609942 16.19711171 -41.13328742 2.74559268 -23.87890625 -1.92578125 C-16.1395452 -3.27220396 -6.92174752 -4.30270792 0 0 Z " fill="#F1F1F1" transform="translate(228.9375,69.4375)"/>
<path d="M0 0 C2.9375 0.75 2.9375 0.75 6 2 C6.83666992 3.81542969 6.83666992 3.81542969 7 6 C6.1105957 8.03613281 6.1105957 8.03613281 4.67578125 10.203125 C4.14734619 11.01120605 3.61891113 11.81928711 3.07446289 12.65185547 C2.49301514 13.50924316 1.91156738 14.36663086 1.3125 15.25 C0.7239624 16.13445801 0.1354248 17.01891602 -0.47094727 17.93017578 C-4.32898745 23.67364676 -8.30995249 29.32217426 -12.4375 34.875 C-12.90824951 35.50954102 -13.37899902 36.14408203 -13.86401367 36.79785156 C-16.18362787 39.85133417 -18.54644532 42.57209945 -21.34765625 45.1953125 C-24.45806587 47.84100813 -24.45806587 47.84100813 -24 52 C-24.66 52 -25.32 52 -26 52 C-26.495 52.99 -26.495 52.99 -27 54 C-27.7321875 54.144375 -28.464375 54.28875 -29.21875 54.4375 C-32.44562962 55.09012734 -34.66376157 56.34287193 -37.5 58 C-46.18089073 63.0719811 -56.83237606 63.24746257 -66.6484375 61.5390625 C-71.53014335 59.94923493 -74.41473044 57.36264238 -77 53 C-77.84550775 49.13284161 -77.91782999 45.70196033 -76.0078125 42.16015625 C-72.78433283 38.06573642 -69.91866667 36.24513677 -64.8203125 35.59375 C-53.23002553 35.29970466 -44.83254751 38.31360878 -34.875 44.5 C-32.22741654 46.3019158 -32.22741654 46.3019158 -30.1015625 45.453125 C-27.26652306 43.49283751 -25.45434785 41.03636548 -23.5 38.25 C-23.07710693 37.65380859 -22.65421387 37.05761719 -22.21850586 36.44335938 C-14.78704979 25.63886518 -8.77958325 13.75508458 -3 2 C-2.01 2 -1.02 2 0 2 C0 1.34 0 0.68 0 0 Z " fill="#202020" transform="translate(519,106)"/>
<path d="M0 0 C0.90105469 0.02707031 1.80210937 0.05414063 2.73046875 0.08203125 C3.76107422 0.13423828 3.76107422 0.13423828 4.8125 0.1875 C4.44640625 0.81011719 4.0803125 1.43273437 3.703125 2.07421875 C1.73124813 5.44049427 -0.23029473 8.81268172 -2.1875 12.1875 C-2.6323877 12.95416992 -3.07727539 13.72083984 -3.53564453 14.51074219 C-10.72158398 26.91948982 -17.60642276 39.44758277 -24.1875 52.1875 C-21.41918355 50.00370982 -18.75146634 47.79265304 -16.1875 45.375 C-10.86603176 40.79197339 -3.41535846 35.47239612 3.7109375 34.9921875 C4.40445313 35.05664062 5.09796875 35.12109375 5.8125 35.1875 C4.34299248 40.07323375 2.28188681 44.37414558 -0.0625 48.875 C-4.36347362 57.3188018 -8.33858832 65.63724363 -9.1875 75.1875 C-0.08567625 72.58697893 3.34746592 64.90025081 7.75 57.0625 C8.44332098 55.77394847 9.13319746 54.48349656 9.8125 53.1875 C10.4725 53.1875 11.1325 53.1875 11.8125 53.1875 C10.50854017 61.68624996 5.21255268 70.44085584 -1.1875 76.1875 C-5.14036808 78.5640219 -8.67131141 78.90009533 -13.1875 78.1875 C-15.6875 76.75 -15.6875 76.75 -17.1875 74.1875 C-19.2158882 63.81313949 -12.78188412 54.03733827 -8.1875 45.1875 C-18.96283706 50.02218203 -25.70137347 59.17814395 -31.43359375 69.14453125 C-36.49594084 77.92753433 -36.49594084 77.92753433 -39.328125 78.9921875 C-41.28125 79.05729167 -43.234375 79.12239583 -45.1875 79.1875 C-44.73667531 77.72682801 -44.27656463 76.26901968 -43.8125 74.8125 C-43.55726563 74.00039062 -43.30203125 73.18828125 -43.0390625 72.3515625 C-42.1875 70.1875 -42.1875 70.1875 -40.1875 68.1875 C-39.55150417 66.741307 -38.9703506 65.27066279 -38.421875 63.7890625 C-36.11810902 57.85505529 -33.32052825 52.23291318 -30.4375 46.5625 C-29.36451306 44.43623338 -28.29159649 42.30993124 -27.21875 40.18359375 C-26.69925781 39.15733887 -26.17976563 38.13108398 -25.64453125 37.07373047 C-24.04691113 33.90900777 -22.46932198 30.73482482 -20.89624023 27.55786133 C-17.95551386 21.62923116 -14.95149759 15.73435523 -11.875 9.875 C-11.54918945 9.24585693 -11.22337891 8.61671387 -10.88769531 7.96850586 C-6.52612099 -0.25426445 -6.52612099 -0.25426445 0 0 Z " fill="#1E1E1E" transform="translate(405.1875,84.8125)"/>
<path d="M0 0 C0.84989502 0.0220752 1.69979004 0.04415039 2.57543945 0.06689453 C3.31366943 0.08606934 4.05189941 0.10524414 4.8125 0.125 C4.44680908 0.64126953 4.08111816 1.15753906 3.7043457 1.68945312 C-0.47004099 7.74334726 -3.82643878 13.99926587 -7 20.625 C-7.48919922 21.60597656 -7.97839844 22.58695313 -8.48242188 23.59765625 C-11.36121843 29.57822668 -12.87877127 34.48390198 -13.1875 41.125 C-6.80055603 39.87876703 -3.98632779 36.04332416 -0.1875 31.125 C1.84009423 28.05926445 3.6536677 24.8999538 5.4375 21.6875 C5.88867188 20.89279297 6.33984375 20.09808594 6.8046875 19.27929688 C8.6155773 16.08161934 10.41496706 12.883994 12.12011719 9.62841797 C12.54196289 8.83193848 12.96380859 8.03545898 13.3984375 7.21484375 C13.76759277 6.50062256 14.13674805 5.78640137 14.51708984 5.05053711 C16.02242248 2.81296484 17.5404121 1.56193307 19.8125 0.125 C22.171875 -0.16796875 22.171875 -0.16796875 24.5625 -0.0625 C25.36171875 -0.03542969 26.1609375 -0.00835937 26.984375 0.01953125 C27.58765625 0.05433594 28.1909375 0.08914062 28.8125 0.125 C28.44898438 0.60066406 28.08546875 1.07632813 27.7109375 1.56640625 C18.77949073 14.00172829 14.72865896 29.77341195 9.8125 44.125 C8.389375 43.8465625 8.389375 43.8465625 6.9375 43.5625 C3.91381207 42.83813368 3.91381207 42.83813368 1.8125 44.125 C2.01746094 43.44953125 2.22242188 42.7740625 2.43359375 42.078125 C2.83771484 40.74007812 2.83771484 40.74007812 3.25 39.375 C3.51683594 38.49328125 3.78367188 37.6115625 4.05859375 36.703125 C4.69718494 34.51934165 5.28025833 32.33664502 5.8125 30.125 C5.38839844 30.70507812 4.96429688 31.28515625 4.52734375 31.8828125 C-4.73030183 44.21277563 -4.73030183 44.21277563 -10.23046875 45.6640625 C-13.98502962 45.93174226 -16.0830046 45.1946636 -19.1875 43.125 C-21.27602972 39.99220542 -21.8537236 37.99093639 -21.62109375 34.2265625 C-21.00111052 31.22159873 -19.67407949 28.83308829 -18.18359375 26.171875 C-17.14671107 24.04118275 -16.75344405 22.26769482 -16.375 19.9375 C-15.13401268 13.48436592 -11.71757249 7.60486754 -8.1875 2.125 C-4.87379 -0.08414 -3.8428979 -0.09981553 0 0 Z " fill="#222222" transform="translate(248.1875,117.875)"/>
<path d="M0 0 C1.13050781 -0.03738281 2.26101563 -0.07476562 3.42578125 -0.11328125 C7.36286903 0.40066195 8.99411163 1.42708769 11.6875 4.3125 C11.6875 5.6325 11.6875 6.9525 11.6875 8.3125 C10.6975 8.3125 9.7075 8.3125 8.6875 8.3125 C8.0275 7.3225 7.3675 6.3325 6.6875 5.3125 C1.7857563 4.5518846 -1.18956153 4.80575749 -5.3125 7.625 C-12.83100987 13.90273418 -21.46569909 24.92223751 -22.61328125 34.9375 C-22.66153092 37.67010007 -22.66153092 37.67010007 -22.3125 41.3125 C-18.42929638 40.97965398 -16.31496776 39.88120307 -13.68359375 37.00390625 C-8.11181819 30.13046233 -3.55556183 22.57009614 0.98828125 15 C2.6875 12.3125 2.6875 12.3125 4.6875 10.3125 C7.37589385 10.04258094 9.97891936 10.22512643 12.6875 10.3125 C12.6875 13.84877097 11.99587305 14.54082936 9.9375 17.3125 C4.62686534 25.04619019 2.29714577 33.01540195 1.6875 42.3125 C4.60267292 41.23848892 6.46560176 40.53439824 8.6875 38.3125 C10.8125 38.6875 10.8125 38.6875 12.6875 39.3125 C6.05955082 46.06095735 6.05955082 46.06095735 0.9375 47 C-2.89671942 46.18891512 -4.14267286 45.56724071 -6.3125 42.3125 C-6.6955545 39.98681197 -7.03393366 37.65300344 -7.3125 35.3125 C-8.01117187 36.02277344 -8.70984375 36.73304688 -9.4296875 37.46484375 C-10.33976563 38.38394531 -11.24984375 39.30304688 -12.1875 40.25 C-13.09242188 41.16652344 -13.99734375 42.08304688 -14.9296875 43.02734375 C-17.89206663 45.8683139 -18.6361189 46.25101081 -22.75 46.625 C-26.3125 46.3125 -26.3125 46.3125 -28.1875 44.5 C-31.21456963 38.61403127 -31.25053143 32.64820991 -29.4765625 26.33984375 C-24.52858252 13.471775 -14.80613709 0.31859185 0 0 Z " fill="#232323" transform="translate(611.3125,116.6875)"/>
<path d="M0 0 C0.99773437 0.02320312 1.99546875 0.04640625 3.0234375 0.0703125 C4.52777344 0.09738281 4.52777344 0.09738281 6.0625 0.125 C6.83335937 0.14820312 7.60421875 0.17140625 8.3984375 0.1953125 C8.03274658 0.64011963 7.66705566 1.08492676 7.2902832 1.54321289 C2.83326499 7.19190153 -0.33465038 13.14872799 -3.4140625 19.6328125 C-4.14786133 21.11104492 -4.14786133 21.11104492 -4.89648438 22.61914062 C-7.76818651 28.61277619 -9.29214525 33.54627953 -9.6015625 40.1953125 C-6.4805456 40.27143486 -4.36202705 39.87621507 -1.99609375 37.7578125 C5.12568314 29.09664916 10.10798945 18.52888315 15.265625 8.62109375 C15.78382813 7.63496094 16.30203125 6.64882812 16.8359375 5.6328125 C17.26777344 4.78589844 17.69960938 3.93898438 18.14453125 3.06640625 C19.3984375 1.1953125 19.3984375 1.1953125 22.3984375 0.1953125 C23.79283414 0.12865874 25.19013625 0.10993051 26.5859375 0.1328125 C28.473125 0.16375 28.473125 0.16375 30.3984375 0.1953125 C28.76254144 3.68411123 26.73168476 6.83239719 24.6484375 10.0703125 C18.84617233 19.36990631 13.23102784 28.91035247 14.3984375 40.1953125 C16.3784375 40.8553125 18.3584375 41.5153125 20.3984375 42.1953125 C19.3984375 43.7578125 19.3984375 43.7578125 17.3984375 45.1953125 C13.55759805 45.43536497 10.39907072 45.06683175 7.4609375 42.5078125 C6.19296699 39.74811199 5.74025661 37.20332064 5.3984375 34.1953125 C4.85574219 34.82179687 4.31304687 35.44828125 3.75390625 36.09375 C3.03847656 36.91101563 2.32304687 37.72828125 1.5859375 38.5703125 C0.52439453 39.78847656 0.52439453 39.78847656 -0.55859375 41.03125 C-3.32466672 43.96127758 -4.92855323 45.12053369 -8.9765625 45.5703125 C-12.6015625 45.1953125 -12.6015625 45.1953125 -15.5390625 43.7578125 C-18.13329145 40.53467956 -18.25204433 38.67946727 -18.0390625 34.6328125 C-17.4337819 31.26053486 -16.16137626 28.45431288 -14.57421875 25.43359375 C-13.47020455 23.1685361 -13.47020455 23.1685361 -13.21875 20.41015625 C-12.42475716 16.27435811 -10.6932489 13.10143951 -8.6640625 9.4453125 C-8.30376953 8.77371094 -7.94347656 8.10210937 -7.57226562 7.41015625 C-3.69126607 0.27712208 -3.69126607 0.27712208 0 0 Z " fill="#212121" transform="translate(297.6015625,117.8046875)"/>
<path d="M0 0 C3.58162255 2.75164321 5.67921275 5.16081979 6.46875 9.6875 C6.67983032 16.16062992 5.8326923 20.76782545 1.4765625 25.73828125 C-11.21353445 38.2409717 -31.21151463 39.42129519 -48.05004883 39.36450195 C-56.62029219 39.19758013 -64.68017987 38.05548497 -73 36 C-72.34 35.01 -71.68 34.02 -71 33 C-69.94683594 33.144375 -68.89367187 33.28875 -67.80859375 33.4375 C-48.24006153 36.00611266 -27.43781899 36.87517399 -9.5625 27.125 C-5.54004723 23.78930746 -1.28050786 19.93843479 -0.76171875 14.50390625 C-0.72498047 13.04791016 -0.72498047 13.04791016 -0.6875 11.5625 C-0.65011719 10.59441406 -0.61273438 9.62632813 -0.57421875 8.62890625 C-0.74776407 5.90331517 -0.74776407 5.90331517 -2.76953125 4.27734375 C-3.87361328 3.64505859 -3.87361328 3.64505859 -5 3 C-5.88171875 2.42378906 -5.88171875 2.42378906 -6.78125 1.8359375 C-9.98726814 0.6280363 -13.11823851 0.61741399 -16.5 0.625 C-17.56033447 0.62632935 -17.56033447 0.62632935 -18.64208984 0.62768555 C-27.45247493 0.8236266 -35.34598379 3.74776877 -43 8 C-43.66 6.68 -44.32 5.36 -45 4 C-42.46531894 0.94090217 -39.86503364 0.05949943 -36.125 -1.125 C-35.09632813 -1.45757812 -34.06765625 -1.79015625 -33.0078125 -2.1328125 C-22.7472211 -5.09106093 -9.12760761 -6.51141434 0 0 Z " fill="#232323" transform="translate(233,67)"/>
<path d="M0 0 C-1.46950752 4.88573375 -3.53061319 9.18664558 -5.875 13.6875 C-10.17597362 22.1313018 -14.15108832 30.44974363 -15 40 C-5.89817625 37.39947893 -2.46503408 29.71275081 1.9375 21.875 C2.63082098 20.58644847 3.32069746 19.29599656 4 18 C4.66 18 5.32 18 6 18 C4.69604017 26.49874996 -0.59994732 35.25335584 -7 41 C-10.95286808 43.3765219 -14.48381141 43.71259533 -19 43 C-21.5 41.5625 -21.5 41.5625 -23 39 C-25.0283882 28.62563949 -18.59438412 18.84983827 -14 10 C-19.24024336 12.09609735 -22.3147692 15.17007411 -26.0703125 19.35546875 C-28 21 -28 21 -32 21 C-32 19 -32 19 -30.53125 17.484375 C-28.36844085 15.63766872 -26.19810364 13.80463931 -24 12 C-23.36449219 11.47792969 -22.72898437 10.95585937 -22.07421875 10.41796875 C-8.02367743 -0.60719721 -8.02367743 -0.60719721 0 0 Z " fill="#212121" transform="translate(411,120)"/>
<path d="M0 0 C0.66 1.32 1.32 2.64 2 4 C2.66 4 3.32 4 4 4 C4 4.66 4 5.32 4 6 C2.38738281 6.31517578 2.38738281 6.31517578 0.7421875 6.63671875 C-3.80346581 8.2927031 -4.59947986 9.63059966 -6.875 13.8125 C-7.54228406 14.98625084 -8.21297366 16.1580709 -8.88671875 17.328125 C-9.22880371 17.93205078 -9.57088867 18.53597656 -9.92333984 19.15820312 C-11.7117127 22.21749674 -13.68320164 25.14169906 -15.6875 28.0625 C-16.39261719 29.10535156 -17.09773437 30.14820313 -17.82421875 31.22265625 C-20.01083179 34.01382658 -22.05797051 36.02750295 -25 38 C-27.8125 37.75 -27.8125 37.75 -30 37 C-31.04957857 26.50421434 -26.35596703 18.81391911 -20.125 10.625 C-14.13475283 3.56425239 -9.59138179 -1.02764805 0 0 Z " fill="#EEEEEE" transform="translate(618,121)"/>
<path d="M0 0 C-2.10997913 6.27411785 -6.52889717 10.27762858 -11 15 C-11.60457031 15.66902344 -12.20914063 16.33804688 -12.83203125 17.02734375 C-17.42226593 21.94007736 -22.67051293 26.35159008 -29.50390625 27.375 C-31.76359987 27.43303387 -33.78359939 27.44515446 -36 27 C-38 25 -38 25 -38.0625 21.875 C-37.09090453 16.68236197 -33.93678491 13.338448 -30 10 C-21.70085327 4.587513 -10.04435465 0 0 0 Z " fill="#EFEFEF" transform="translate(243,173)"/>
<path d="M0 0 C1.9375 0.375 1.9375 0.375 4 1 C5.24586539 3.49173079 5.11418208 5.29289651 4.67578125 8.0078125 C2.75294471 13.67629016 -3.96969699 16.67177312 -8.9375 19.25 C-24.80134779 26.74998744 -43.56398419 25.25957469 -59.9375 19.5625 C-63.40234375 18.31640625 -63.40234375 18.31640625 -66 17 C-66.33 16.01 -66.66 15.02 -67 14 C-62.8154853 12.80225847 -60.49813472 13.24654625 -56.5 14.875 C-45.03518982 19.48024679 -29.1875435 20.36009752 -17.4375 16.25 C-13.8545049 14.64224579 -10.92537173 12.64227124 -8 10 C-7.34 10 -6.68 10 -6 10 C-5.7525 9.46375 -5.505 8.9275 -5.25 8.375 C-3.70303025 5.43575748 -1.86985631 2.74245592 0 0 Z " fill="#282828" transform="translate(560,144)"/>
<path d="M0 0 C6.20111297 2.19286507 12.1074185 5.09584542 18 8 C17 11 17 11 14.6015625 12.3515625 C13.12816406 12.98191406 13.12816406 12.98191406 11.625 13.625 C10.64789063 14.05039063 9.67078125 14.47578125 8.6640625 14.9140625 C2.46104554 17.44256502 -3.57728531 18.23425263 -9.9375 15.6875 C-13 14 -13 14 -15 11 C-15.40713754 7.26790586 -15.48317209 4.89731959 -13.6875 1.5625 C-9.08261464 -1.11475893 -5.17764437 -0.99281475 0 0 Z " fill="#F0F0F0" transform="translate(466,147)"/>
<path d="M0 0 C0.33 0 0.66 0 1 0 C6.19782269 22.92611081 6.19782269 22.92611081 1.6875 30.625 C-0.18803113 33.38479055 -0.71109119 33.90369706 -4 35 C-7.80238572 31.47838116 -9.80811731 28.58522565 -11.1328125 23.56640625 C-10.85195491 16.02455392 -5.38903154 5.38903154 0 0 Z " fill="#EAEAEA" transform="translate(645,124)"/>
<path d="M0 0 C0.33 0 0.66 0 1 0 C6.06713781 20.38919738 6.06713781 20.38919738 2.6875 29.5625 C-0.25581395 33.81395349 -0.25581395 33.81395349 -2 35 C-4 35 -4 35 -6 34 C-9.00143097 30.22042026 -9.46631996 26.71417373 -10 22 C-10.33 21.34 -10.66 20.68 -11 20 C-10.10375977 17.93701172 -10.10375977 17.93701172 -8.69140625 15.4296875 C-8.19189453 14.53378906 -7.69238281 13.63789063 -7.17773438 12.71484375 C-6.64470703 11.77769531 -6.11167969 10.84054688 -5.5625 9.875 C-5.03333984 8.93011719 -4.50417969 7.98523438 -3.95898438 7.01171875 C-2.64641061 4.67037095 -1.32651055 2.3334713 0 0 Z " fill="#EDEDED" transform="translate(344,124)"/>
<path d="M0 0 C0.99 0 1.98 0 3 0 C2.34 1.98 1.68 3.96 1 6 C1.33 5.67 1.66 5.34 2 5 C3.32520503 4.31731862 4.65812182 3.6492959 6 3 C5.814375 3.639375 5.62875 4.27875 5.4375 4.9375 C5.293125 5.618125 5.14875 6.29875 5 7 C5.33 7.33 5.66 7.66 6 8 C6.36960994 9.44956397 6.69659993 10.91014655 7 12.375 C7.54881592 15.00760137 8.14727462 17.44182385 9 20 C9.66 20 10.32 20 11 20 C10.67 21.65 10.34 23.3 10 25 C2.80174292 25.48801743 2.80174292 25.48801743 -0.875 23.25 C-2.80797343 21.20332225 -3.97795695 19.60156414 -5 17 C-6.65 18.98 -8.3 20.96 -10 23 C-10.99 22.67 -11.98 22.34 -13 22 C-13 21.34 -13 20.68 -13 20 C-12.29875 19.34 -11.5975 18.68 -10.875 18 C-5.78790396 13.13030123 -2.45862941 6.52527237 0 0 Z " fill="#222222" transform="translate(329,138)"/>
<path d="M0 0 C0.66 0.66 1.32 1.32 2 2 C-1.63 5.96 -5.26 9.92 -9 14 C-9 10.06111246 -7.71256133 9.26454258 -5.0625 6.4375 C-2.19301173 3.45371254 -2.19301173 3.45371254 0 0 Z M-12 15 C-11.01 16.32 -10.02 17.64 -9 19 C-18.46467642 29.12500269 -31.90627672 41.54190442 -46.578125 42.09765625 C-47.45984375 42.08605469 -48.3415625 42.07445312 -49.25 42.0625 C-50.14203125 42.05347656 -51.0340625 42.04445312 -51.953125 42.03515625 C-52.62859375 42.02355469 -53.3040625 42.01195312 -54 42 C-53.360625 41.731875 -52.72125 41.46375 -52.0625 41.1875 C-49.66868314 40.11332248 -49.66868314 40.11332248 -49 37 C-48.3709375 36.90203125 -47.741875 36.8040625 -47.09375 36.703125 C-32.2738537 34.11410697 -22.80437753 24.94724528 -12 15 Z " fill="#272727" transform="translate(196,127)"/>
<path d="M0 0 C0.76570313 0.06960937 1.53140625 0.13921875 2.3203125 0.2109375 C3.10148437 0.26507813 3.88265625 0.31921875 4.6875 0.375 C5.26757812 0.44460937 5.84765625 0.51421875 6.4453125 0.5859375 C6.7753125 1.5759375 7.1053125 2.5659375 7.4453125 3.5859375 C6.1665625 3.6684375 4.8878125 3.7509375 3.5703125 3.8359375 C1.39896695 3.88961535 1.39896695 3.88961535 -0.5546875 4.5859375 C-2.59782077 7.4425405 -2.70264987 9.59953994 -2.4296875 13.0234375 C-2.32149034 16.66607536 -2.4527542 17.42985213 -4.5546875 20.6484375 C-5.2146875 21.2878125 -5.8746875 21.9271875 -6.5546875 22.5859375 C-7.2146875 19.6159375 -7.8746875 16.6459375 -8.5546875 13.5859375 C-9.35132813 15.28363281 -9.35132813 15.28363281 -10.1640625 17.015625 C-10.87696175 18.49770502 -11.59053893 19.97945907 -12.3046875 21.4609375 C-12.65273438 22.20730469 -13.00078125 22.95367187 -13.359375 23.72265625 C-13.88144531 24.79580078 -13.88144531 24.79580078 -14.4140625 25.890625 C-14.88537598 26.8803833 -14.88537598 26.8803833 -15.36621094 27.89013672 C-16.82409718 29.97034992 -18.28093371 30.53195188 -20.5546875 31.5859375 C-20.8846875 32.2459375 -21.2146875 32.9059375 -21.5546875 33.5859375 C-22.2146875 33.2559375 -22.8746875 32.9259375 -23.5546875 32.5859375 C-22.8946875 31.2659375 -22.2346875 29.9459375 -21.5546875 28.5859375 C-20.8946875 28.5859375 -20.2346875 28.5859375 -19.5546875 28.5859375 C-19.31234375 27.7609375 -19.07 26.9359375 -18.8203125 26.0859375 C-17.34177775 21.99715003 -15.43019858 18.3677833 -13.3046875 14.5859375 C-12.93472656 13.90015625 -12.56476563 13.214375 -12.18359375 12.5078125 C-5.95320706 1.36541446 -5.95320706 1.36541446 0 0 Z " fill="#212121" transform="translate(352.5546875,111.4140625)"/>
<path d="M0 0 C0.69029297 -0.01224609 1.38058594 -0.02449219 2.09179688 -0.03710938 C6.47066814 -0.04956114 9.99543116 0.57722079 14.0625 2.1875 C13.4025 3.5075 12.7425 4.8275 12.0625 6.1875 C11.5571875 6.02894531 11.051875 5.87039062 10.53125 5.70703125 C-2.2610147 3.0149882 -14.66967286 5.92759603 -25.9375 12.1875 C-26.5975 10.8675 -27.2575 9.5475 -27.9375 8.1875 C-25.40281894 5.12840217 -22.80253364 4.24699943 -19.0625 3.0625 C-18.03382813 2.72992188 -17.00515625 2.39734375 -15.9453125 2.0546875 C-10.56012899 0.50207615 -5.5990631 0.00519876 0 0 Z " fill="#292929" transform="translate(215.9375,62.8125)"/>
<path d="M0 0 C2.5 1.1875 2.5 1.1875 4.5 3.1875 C4.71676408 6.58347063 4.58073852 8.94528445 3.5 12.1875 C4.87249963 14.86426547 4.87249963 14.86426547 6.5 17.1875 C4.85 17.1875 3.2 17.1875 1.5 17.1875 C1.17 17.8475 0.84 18.5075 0.5 19.1875 C-3.23884332 16.53095343 -5.14978174 14.60639613 -6.5 10.1875 C-7.82 10.5175 -9.14 10.8475 -10.5 11.1875 C-9.54855402 9.37137512 -8.58863067 7.55968919 -7.625 5.75 C-7.09132813 4.74066406 -6.55765625 3.73132813 -6.0078125 2.69140625 C-4.0942488 -0.48629927 -3.59184171 -1.16734856 0 0 Z " fill="#202020" transform="translate(631.5,143.8125)"/>
<path d="M0 0 C0.99 0.33 1.98 0.66 3 1 C2.09398175 7.20690116 1.07072395 10.89512823 -4 15 C-4.66 15.556875 -5.32 16.11375 -6 16.6875 C-10.09268428 19.37332406 -13.68895784 20.27711289 -18.5625 20.25 C-19.49191406 20.25515625 -20.42132813 20.2603125 -21.37890625 20.265625 C-24.0554462 19.99438101 -25.70438282 19.36116595 -28 18 C-28 17.34 -28 16.68 -28 16 C-27.01 16 -26.02 16 -25 16 C-24.67 15.34 -24.34 14.68 -24 14 C-23.01 14.33 -22.02 14.66 -21 15 C-16.33305478 15.54225459 -12.92228952 15.4698456 -8.6875 13.3125 C-4.05180563 9.3236467 -1.65140432 5.91753215 0 0 Z " fill="#282828" transform="translate(489,100)"/>
<path d="M0 0 C0.66 0 1.32 0 2 0 C0.64540209 11.31089253 -6.65829884 21.53110119 -15 29 C-17.70062426 30.85051471 -19.88214068 31.8711199 -23 33 C-23.99 32.67 -24.98 32.34 -26 32 C-26.6875 29.9375 -26.6875 29.9375 -27 28 C-25.845 27.814375 -24.69 27.62875 -23.5 27.4375 C-14.04630486 24.97421324 -9.45946868 17.12117122 -4.76171875 9.18359375 C-3.08823221 6.15944401 -1.51746626 3.10496941 0 0 Z " fill="#292929" transform="translate(227,138)"/>
<path d="M0 0 C1.65 0 3.3 0 5 0 C4.62527738 3.74722623 4.21822268 6.58974137 2.4375 9.9375 C0.52165614 14.01908039 0.63783717 16.50918093 1 21 C1.86265968 23.40557853 1.86265968 23.40557853 3 25 C2.34 25 1.68 25 1 25 C0.67 25.99 0.34 26.98 0 28 C-0.680625 27.649375 -1.36125 27.29875 -2.0625 26.9375 C-5.7087789 25.77379397 -8.28489978 26.27154898 -12 27 C-11.64808594 26.50113281 -11.29617187 26.00226563 -10.93359375 25.48828125 C-2.78983703 14.01086647 -2.78983703 14.01086647 2 1 C1.34 0.67 0.68 0.34 0 0 Z " fill="#EDEDED" transform="translate(227,137)"/>
<path d="M0 0 C1 3 1 3 0.10375977 5.17651367 C-0.36231689 5.99869385 -0.82839355 6.82087402 -1.30859375 7.66796875 C-1.80810547 8.56064453 -2.30761719 9.45332031 -2.82226562 10.37304688 C-3.62180664 11.76620117 -3.62180664 11.76620117 -4.4375 13.1875 C-4.96666016 14.12787109 -5.49582031 15.06824219 -6.04101562 16.03710938 C-7.35173029 18.3633327 -8.67163717 20.68382345 -10 23 C-11.98 22.67 -13.96 22.34 -16 22 C-15.34 20.02 -14.68 18.04 -14 16 C-13.34 16 -12.68 16 -12 16 C-11.67 16.66 -11.34 17.32 -11 18 C-10.18595703 16.30230469 -10.18595703 16.30230469 -9.35546875 14.5703125 C-8.63323867 13.0883339 -7.91055895 11.60657437 -7.1875 10.125 C-6.83107422 9.37863281 -6.47464844 8.63226563 -6.10742188 7.86328125 C-5.58051758 6.79013672 -5.58051758 6.79013672 -5.04296875 5.6953125 C-4.72352295 5.03547363 -4.40407715 4.37563477 -4.07495117 3.69580078 C-3 2 -3 2 0 0 Z " fill="#292929" transform="translate(644,122)"/>
<path d="M0 0 C0.99 0 1.98 0 3 0 C0.94734759 7.59481394 -3.3100024 16.48242657 -9 22 C-11.30043801 23.22257552 -13.54124801 24.10160985 -16 25 C-16.33 23.68 -16.66 22.36 -17 21 C-16.29875 21 -15.5975 21 -14.875 21 C-8.37713387 18.73987265 -5.53942729 11.2945672 -2.625 5.5 C-1.74196132 3.67052499 -0.86409434 1.83849859 0 0 Z " fill="#272727" transform="translate(668,138)"/>
<path d="M0 0 C0.66 0 1.32 0 2 0 C0.70015298 8.47194411 -4.59066992 17.29084884 -11 23 C-11.99 23.33 -12.98 23.66 -14 24 C-14.33 23.01 -14.66 22.02 -15 21 C-14.29875 20.360625 -13.5975 19.72125 -12.875 19.0625 C-7.44335466 13.63085466 -3.69293968 6.67569865 0 0 Z " fill="#2D2D2D" transform="translate(415,138)"/>
<path d="M0 0 C0.99 0 1.98 0 3 0 C0.55055295 8.46172617 -3.34838957 17.02748069 -10 23 C-12.875 24.4375 -12.875 24.4375 -15 25 C-14.875 23.3125 -14.875 23.3125 -14 21 C-13.0821875 20.29875 -12.164375 19.5975 -11.21875 18.875 C-7.39111991 15.78652603 -5.64797227 12.09159721 -3.625 7.6875 C-3.27050781 6.94693359 -2.91601562 6.20636719 -2.55078125 5.44335938 C-1.68747275 3.63507805 -0.84187289 1.81835997 0 0 Z " fill="#2C2C2C" transform="translate(367,138)"/>
<path d="M0 0 C0.66 0 1.32 0 2 0 C5 4.38461538 5 4.38461538 5 7 C5.66 7 6.32 7 7 7 C6.67 8.65 6.34 10.3 6 12 C4.35 12 2.7 12 1 12 C0.690625 11.360625 0.38125 10.72125 0.0625 10.0625 C-0.8345163 8.06389179 -0.8345163 8.06389179 -2 7 C-2.1875 4.5625 -2.1875 4.5625 -2 2 C-1.34 1.34 -0.68 0.68 0 0 Z " fill="#252525" transform="translate(333,151)"/>
<path d="M0 0 C1.62723299 0.45034123 3.25173664 0.91055354 4.875 1.375 C5.77992188 1.63023437 6.68484375 1.88546875 7.6171875 2.1484375 C10 3 10 3 12 5 C11.625 7.125 11.625 7.125 11 9 C10.45472656 8.79503906 9.90945313 8.59007812 9.34765625 8.37890625 C3.84567235 6.41324021 -1.1764819 5.46218398 -7 5 C-7 4.67 -7 4.34 -7 4 C-3.535 3.505 -3.535 3.505 0 3 C0 2.01 0 1.02 0 0 Z " fill="#303030" transform="translate(464,142)"/>
<path d="M0 0 C0.66 0.33 1.32 0.66 2 1 C1.875 3.3125 1.875 3.3125 1 6 C-2.20733304 8.02201431 -4.19154436 9 -8 9 C-8 8.34 -8 7.68 -8 7 C-9.32 6.34 -10.64 5.68 -12 5 C-10.04578965 4.13644222 -8.08648653 3.28440066 -6.125 2.4375 C-5.03445313 1.96183594 -3.94390625 1.48617187 -2.8203125 0.99609375 C-1.88960938 0.66738281 -0.95890625 0.33867187 0 0 Z " fill="#282828" transform="translate(481,158)"/>
<path d="M0 0 C0.66 0 1.32 0 2 0 C1.38123474 4.39735844 -0.23289071 7.78210953 -2.3125 11.6875 C-3.20388672 13.39486328 -3.20388672 13.39486328 -4.11328125 15.13671875 C-6.02557353 18.03881035 -6.83145852 18.85393181 -10 20 C-11.11375 20.556875 -11.11375 20.556875 -12.25 21.125 C-12.8275 21.41375 -13.405 21.7025 -14 22 C-13.63648438 21.53851563 -13.27296875 21.07703125 -12.8984375 20.6015625 C-7.91997903 14.14233177 -3.56938297 7.34080648 0 0 Z " fill="#2F2F2F" transform="translate(280,138)"/>
<path d="M0 0 C0.33 0.99 0.66 1.98 1 3 C-7.261959 8.55580866 -7.261959 8.55580866 -12 9 C-12.33 7.35 -12.66 5.7 -13 4 C-11.783125 3.71125 -10.56625 3.4225 -9.3125 3.125 C-6.08185352 2.32164208 -3.05679065 1.33734591 0 0 Z " fill="#303030" transform="translate(213,162)"/>
<path d="M0 0 C0.33 0 0.66 0 1 0 C1.33 1.98 1.66 3.96 2 6 C2.99 6.33 3.98 6.66 5 7 C4.49820698 11.34887281 1.93852884 13.9247954 -1 17 C-3.16796875 17.67578125 -3.16796875 17.67578125 -5 18 C-4.360625 16.88625 -3.72125 15.7725 -3.0625 14.625 C-0.64256752 9.85354302 -0.2167031 5.28755567 0 0 Z " fill="#D2D2D2" transform="translate(657,142)"/>
<path d="M0 0 C0.33 1.32 0.66 2.64 1 4 C-0.24839499 5.105981 -1.49879234 6.20970201 -2.75 7.3125 C-3.44609375 7.92738281 -4.1421875 8.54226562 -4.859375 9.17578125 C-10.52034261 14 -10.52034261 14 -14 14 C-14 12 -14 12 -12.4609375 10.44921875 C-11.77257812 9.86785156 -11.08421875 9.28648437 -10.375 8.6875 C-9.65054687 8.07132813 -8.92609375 7.45515625 -8.1796875 6.8203125 C-7.46039063 6.21960938 -6.74109375 5.61890625 -6 5 C-5.38382812 4.48179687 -4.76765625 3.96359375 -4.1328125 3.4296875 C-2.76024877 2.28041165 -1.3809017 1.1392439 0 0 Z " fill="#303030" transform="translate(393,127)"/>
<path d="M0 0 C0.33 0.99 0.66 1.98 1 3 C-6.625 4 -6.625 4 -10 4 C-11.33981486 4.3062434 -12.67511887 4.63451555 -14 5 C-9.74404706 -0.49155218 -6.48540926 -0.63582444 0 0 Z " fill="#2E2E2E" transform="translate(660,112)"/>
<path d="M0 0 C1.25955231 3.77865693 0.48087189 5.03411786 -0.9375 8.6875 C-1.31777344 9.68136719 -1.69804687 10.67523438 -2.08984375 11.69921875 C-2.39019531 12.45847656 -2.69054687 13.21773437 -3 14 C-3.99 13.67 -4.98 13.34 -6 13 C-6.99 13.99 -7.98 14.98 -9 16 C-9.66 15.67 -10.32 15.34 -11 15 C-10.54109375 14.50371094 -10.0821875 14.00742188 -9.609375 13.49609375 C-5.74280707 9.21525069 -2.66482385 5.11646179 0 0 Z " fill="#E5E5E5" transform="translate(255,144)"/>
<path d="M0 0 C1.65 0 3.3 0 5 0 C4.53640488 4.72867022 3.9200845 8.18142796 1 12 C0.01 12.33 -0.98 12.66 -2 13 C-0.66666667 9 0.66666667 5 2 1 C1.34 0.67 0.68 0.34 0 0 Z " fill="#DADADA" transform="translate(227,137)"/>
<path d="M0 0 C0 3 0 3 -1.57421875 4.75390625 C-8.592641 10.76043028 -8.592641 10.76043028 -13 12 C-12.7734375 10.16015625 -12.7734375 10.16015625 -12 8 C-10.0390625 6.62109375 -10.0390625 6.62109375 -7.625 5.4375 C-4.57091619 3.92040625 -2.28872644 2.54713104 0 0 Z " fill="#252525" transform="translate(272,155)"/>
<path d="M0 0 C0.99386719 0.02707031 1.98773438 0.05414063 3.01171875 0.08203125 C4.15060547 0.13423828 4.15060547 0.13423828 5.3125 0.1875 C2.8375 3.6525 2.8375 3.6525 0.3125 7.1875 C-0.3475 6.8575 -1.0075 6.5275 -1.6875 6.1875 C-1.3575 4.5375 -1.0275 2.8875 -0.6875 1.1875 C-1.8321875 1.6825 -1.8321875 1.6825 -3 2.1875 C-5.6875 3.1875 -5.6875 3.1875 -8.6875 3.1875 C-6.10291354 -0.17334451 -4.11082043 -0.14508778 0 0 Z " fill="#2F2F2F" transform="translate(300.6875,117.8125)"/>
<path d="M0 0 C1 3 1 3 -0.1796875 5.48046875 C-1.01886719 6.82044922 -1.01886719 6.82044922 -1.875 8.1875 C-2.42929687 9.08855469 -2.98359375 9.98960937 -3.5546875 10.91796875 C-4.03164063 11.60503906 -4.50859375 12.29210937 -5 13 C-5.33 13 -5.66 13 -6 13 C-5.09302326 5.13953488 -5.09302326 5.13953488 -3 2 C-2.01 1.34 -1.02 0.68 0 0 Z " fill="#282828" transform="translate(644,122)"/>
<path d="M0 0 C1.65 0 3.3 0 5 0 C5.5625 1.9375 5.5625 1.9375 6 4 C5 5 5 5 2.71484375 5.09765625 C1.34005859 5.08025391 1.34005859 5.08025391 -0.0625 5.0625 C-0.98160156 5.05347656 -1.90070313 5.04445312 -2.84765625 5.03515625 C-3.55792969 5.02355469 -4.26820313 5.01195312 -5 5 C-4.360625 4.731875 -3.72125 4.46375 -3.0625 4.1875 C-0.66868314 3.11332248 -0.66868314 3.11332248 0 0 Z " fill="#353535" transform="translate(147,164)"/>
<path d="M0 0 C2 1 2 1 3 2 C3.07205511 3.68608966 3.08386068 5.37500659 3.0625 7.0625 C3.05347656 7.98160156 3.04445313 8.90070313 3.03515625 9.84765625 C3.02355469 10.55792969 3.01195312 11.26820313 3 12 C2.67 12 2.34 12 2 12 C1.67 9.69 1.34 7.38 1 5 C-0.98 5.99 -0.98 5.99 -3 7 C-3 3.48283697 -2.17554415 2.62878252 0 0 Z " fill="#444444" transform="translate(603,147)"/>
<path d="M0 0 C0.99 0.33 1.98 0.66 3 1 C2.34 3.97 1.68 6.94 1 10 C-0.32 9.67 -1.64 9.34 -3 9 C-2.01 6.03 -1.02 3.06 0 0 Z " fill="#2D2D2D" transform="translate(489,100)"/>
<path d="M0 0 C0.66 0.99 1.32 1.98 2 3 C1.5390625 5.26171875 1.5390625 5.26171875 0.625 7.6875 C0.32851563 8.49574219 0.03203125 9.30398437 -0.2734375 10.13671875 C-0.51320313 10.75160156 -0.75296875 11.36648437 -1 12 C-2.32 11.67 -3.64 11.34 -5 11 C-3.35 7.37 -1.7 3.74 0 0 Z " fill="#D9D9D9" transform="translate(282,138)"/>
<path d="M0 0 C0.99 0 1.98 0 3 0 C1.84414715 3.91211733 0.64465038 6.8745041 -2 10 C-2.66 9.34 -3.32 8.68 -4 8 C-2.68 5.36 -1.36 2.72 0 0 Z " fill="#373737" transform="translate(668,138)"/>
<path d="M0 0 C0.33 1.65 0.66 3.3 1 5 C0.01 5 -0.98 5 -2 5 C-2.66 4.01 -3.32 3.02 -4 2 C-6.56282742 1.27034634 -6.56282742 1.27034634 -9 1 C-9 0.67 -9 0.34 -9 0 C-5.62182575 -0.84454356 -3.32534757 -1.10844919 0 0 Z " fill="#363636" transform="translate(622,120)"/>
<path d="M0 0 C0.99 0 1.98 0 3 0 C2.75 2.375 2.75 2.375 2 5 C0 6.1875 0 6.1875 -2 7 C-2.33 7.66 -2.66 8.32 -3 9 C-3.66 8.67 -4.32 8.34 -5 8 C-4.34 6.68 -3.68 5.36 -3 4 C-2.34 4 -1.68 4 -1 4 C-0.67 2.68 -0.34 1.36 0 0 Z " fill="#494949" transform="translate(334,136)"/>
<path d="M0 0 C0.33 1.32 0.66 2.64 1 4 C-1.70879335 5.35439668 -4.00933268 5.06501451 -7 5 C-6.67 4.01 -6.34 3.02 -6 2 C-2.9375 0.8125 -2.9375 0.8125 0 0 Z " fill="#1F1F1F" transform="translate(479,114)"/>
<path d="M0 0 C0.66 0.33 1.32 0.66 2 1 C1.60196439 3.88575819 1.20990931 4.82189513 -1.0625 6.75 C-1.701875 7.1625 -2.34125 7.575 -3 8 C-3.66 7.67 -4.32 7.34 -5 7 C-5 5 -5 5 -2.5 2.375 C-1.675 1.59125 -0.85 0.8075 0 0 Z " fill="#2C2C2C" transform="translate(321,153)"/>
<path d="M0 0 C1.94268841 2.91403262 3.46395304 5.85808576 5 9 C2.13275314 8.42655063 1.1385485 8.1385485 -1 6 C-1.1875 3.4375 -1.1875 3.4375 -1 1 C-0.67 0.67 -0.34 0.34 0 0 Z " fill="#CFCFCF" transform="translate(332,152)"/>
<path d="M0 0 C0.268125 0.556875 0.53625 1.11375 0.8125 1.6875 C2.10122647 4.19712523 3.52926478 6.59334236 5 9 C0.125 8.125 0.125 8.125 -1 7 C-1.125 4 -1.125 4 -1 1 C-0.67 0.67 -0.34 0.34 0 0 Z " fill="#D0D0D0" transform="translate(633,152)"/>
<path d="M0 0 C0.33 0 0.66 0 1 0 C1.8125 3.25 1.8125 3.25 2 7 C-0.4375 9.4375 -0.4375 9.4375 -3 11 C-3.66 10.67 -4.32 10.34 -5 10 C-4.360625 9.0925 -3.72125 8.185 -3.0625 7.25 C-1.38571047 4.60778619 -0.46310002 3.0101501 0 0 Z " fill="#DBDBDB" transform="translate(356,149)"/>
<path d="M0 0 C0.99 0.33 1.98 0.66 3 1 C2.60196439 3.88575819 2.20990931 4.82189513 -0.0625 6.75 C-0.701875 7.1625 -1.34125 7.575 -2 8 C-2.66 7.67 -3.32 7.34 -4 7 C-2.68 4.69 -1.36 2.38 0 0 Z " fill="#DADADA" transform="translate(656,152)"/>
<path d="M0 0 C0 0.66 0 1.32 0 2 C-3.3 2 -6.6 2 -10 2 C-9 0 -9 0 -7.25 -0.6875 C-4.60760177 -1.05449975 -2.57327078 -0.64331769 0 0 Z " fill="#1D1D1D" transform="translate(218,201)"/>
<path d="M0 0 C0.66 0 1.32 0 2 0 C1.62403791 2.78211944 1.32681541 4.5879284 -0.4375 6.8125 C-2 8 -2 8 -4 8 C-2.87548273 5.0280615 -1.77706209 2.66559313 0 0 Z " fill="#2D2D2D" transform="translate(664,147)"/>
<path d="M0 0 C0.99 0 1.98 0 3 0 C1.25 5.75 1.25 5.75 -1 8 C-1.66 7.67 -2.32 7.34 -3 7 C-1.125 2.25 -1.125 2.25 0 0 Z " fill="#2D2D2D" transform="translate(338,129)"/>
<path d="M0 0 C0.66 0 1.32 0 2 0 C1.5206753 4.31392226 0.2542015 6.16569547 -3 9 C-3.33 8.34 -3.66 7.68 -4 7 C-3.22265625 5.2734375 -3.22265625 5.2734375 -2.0625 3.375 C-1.381875 2.26125 -0.70125 1.1475 0 0 Z " fill="#333333" transform="translate(415,138)"/>
<path d="M0 0 C0.66 0.99 1.32 1.98 2 3 C0.60667426 6.36720387 -0.9789286 7.9859524 -4 10 C-2.8905928 6.51329166 -1.73662334 3.22515763 0 0 Z " fill="#C6C6C6" transform="translate(384,129)"/>
<path d="M0 0 C1.32 0 2.64 0 4 0 C3.67 1.32 3.34 2.64 3 4 C1.35 4.33 -0.3 4.66 -2 5 C-1.125 1.125 -1.125 1.125 0 0 Z " fill="#1D1D1D" transform="translate(615,128)"/>
<path d="M0 0 C1.1640625 3.671875 1.1640625 3.671875 -0.3125 6.625 C-2 9 -2 9 -4 11 C-5 8 -5 8 -4.00390625 5.95703125 C-3.52824219 5.24933594 -3.05257813 4.54164063 -2.5625 3.8125 C-2.08941406 3.09707031 -1.61632812 2.38164062 -1.12890625 1.64453125 C-0.75636719 1.10183594 -0.38382812 0.55914062 0 0 Z " fill="#BFBFBF" transform="translate(365,149)"/>
<path d="M0 0 C1.13643966 3.40931897 0.86747764 4.00335456 -0.4375 7.1875 C-0.72496094 7.90292969 -1.01242188 8.61835938 -1.30859375 9.35546875 C-1.53675781 9.89816406 -1.76492187 10.44085938 -2 11 C-2.33 10.34 -2.66 9.68 -3 9 C-3.66 8.67 -4.32 8.34 -5 8 C-3.35 5.36 -1.7 2.72 0 0 Z " fill="#CECECE" transform="translate(255,144)"/>
<path d="M0 0 C1.65 0 3.3 0 5 0 C5.33 0.99 5.66 1.98 6 3 C3.69 3 1.38 3 -1 3 C-0.67 2.01 -0.34 1.02 0 0 Z " fill="#2D2D2D" transform="translate(354,112)"/>
<path d="M0 0 C0.99 0 1.98 0 3 0 C2.1875 2.9375 2.1875 2.9375 1 6 C0.01 6.33 -0.98 6.66 -2 7 C-1.34 4.69 -0.68 2.38 0 0 Z " fill="#282828" transform="translate(329,138)"/>
<path d="M0 0 C0.66 0 1.32 0 2 0 C2 1.98 2 3.96 2 6 C1.01 6 0.02 6 -1 6 C-1.33 5.34 -1.66 4.68 -2 4 C-1.0625 1.875 -1.0625 1.875 0 0 Z " fill="#404040" transform="translate(630,138)"/>
<path d="M0 0 C0 3 0 3 -2 6 C-2 6.66 -2 7.32 -2 8 C-2.99 8.33 -3.98 8.66 -5 9 C-4.5206753 4.68607774 -3.2542015 2.83430453 0 0 Z " fill="#2E2E2E" transform="translate(485,109)"/>
<path d="M0 0 C0.33 0.66 0.66 1.32 1 2 C-0.98 2.33 -2.96 2.66 -5 3 C-5 2.34 -5 1.68 -5 1 C-5.99 0.67 -6.98 0.34 -8 0 C-4.97878489 -0.97110486 -2.99536737 -1.13617383 0 0 Z " fill="#C7C7C7" transform="translate(215,104)"/>
<path d="M0 0 C1.32 0.33 2.64 0.66 4 1 C4 1.99 4 2.98 4 4 C2.35 4 0.7 4 -1 4 C-1.33 3.34 -1.66 2.68 -2 2 C-1.34 2 -0.68 2 0 2 C0 1.34 0 0.68 0 0 Z " fill="#191919" transform="translate(340,159)"/>
<path d="M0 0 C1.65 0.33 3.3 0.66 5 1 C4.67 1.99 4.34 2.98 4 4 C1.03 3.505 1.03 3.505 -2 3 C-1.34 2.01 -0.68 1.02 0 0 Z " fill="#2B2B2B" transform="translate(162,100)"/>
</svg>
